:SAMPLES-PER-SECOND 30
:FULLY-SPECIFIED
:DEGREES
322
root  -10.4511 26.8483 -2.39292 11.6311 35.7318 3.87051
RightUpLeg  -42.3546 -3.17959 -8.5125
RightLeg  75.3616 1.67396 4.79195
RightFoot  -30.1207 -0.400064 -1.10919
RightToes  -41.3596 -0.229434 -0.322673
Spine  19.2879 5.90107 3.53419
Spine1  34.4216 17.8167 -1.53168
HEad  18.4344 12.0108 -14.9857
LeftShoulder1  0 -2.42657e-020 -4.95415e-022
LeftArm  -22.6967 -15.5517 -97.2255
LeftForeArm  18.9177 -40.4491 -8.64794
LeftHand  -0.0154107 -6.47207 -0.0974979
RightShoulder  0 2.42657e-020 1.07489e-018
RightArm  -35.8682 42.2083 68.7227
RightForeArm  68.2791 17.3832 3.09487
RightHand  -4.68217 22.794 -22.5652
LeftUpLeg  -55.9861 2.38253 19.6509
LeftLeg  53.7149 4.97966 5.90458
LeftFoot  -7.90789 -0.112131 -1.62219
LeftToes  -8.26925 2.34596e-006 -6.06653e-008
323
root  -9.68736 26.1289 -3.0652 13.8094 37.735 3.12088
RightUpLeg  -45.7915 -6.31619 -9.52845
RightLeg  78.1405 1.57939 5.34527
RightFoot  -31.3828 -0.468424 -1.2898
RightToes  -43.2647 -0.245074 -0.332812
Spine  19.4556 5.19024 5.38719
Spine1  34.8645 15.9095 2.09176
HEad  16.135 9.52419 -16.0734
LeftShoulder1  0 -2.42657e-020 -4.95415e-022
LeftArm  -20.4178 -17.6926 -97.9003
LeftForeArm  19.6542 -40.1502 -8.55616
LeftHand  -0.0846879 -7.26236 0.965388
RightShoulder  0 2.42657e-020 1.07489e-018
RightArm  -62.9607 42.1778 60.0807
RightForeArm  56.2423 9.32017 1.62252
RightHand  -1.92762 18.2742 -11.5765
LeftUpLeg  -59.2103 3.45333 21.4842
LeftLeg  52.3385 4.23803 4.79305
LeftFoot  -6.88579 -0.104819 -1.74215
LeftToes  -17.6498 2.34596e-006 -6.06653e-008
324
root  -8.86203 25.7836 -3.60883 15.0122 39.5649 2.47464
RightUpLeg  -46.9227 -6.0576 -10.6316
RightLeg  79.0345 0.768395 2.5933
RightFoot  -31.808 -0.0805284 0.094929
RightToes  -43.2907 -0.24529 -0.332946
Spine  19.5366 3.94108 6.71476
Spine1  34.8545 12.3834 5.51812
HEad  13.8195 7.88016 -17.4824
LeftShoulder1  0 -2.42657e-020 -4.95415e-022
LeftArm  -19.5967 -19.0041 -97.2376
LeftForeArm  19.9154 -40.3074 -8.60455
LeftHand  -0.0731565 -7.32407 0.773778
RightShoulder  0 2.42657e-020 1.07489e-018
RightArm  -80.2721 38.2499 53.3897
RightForeArm  39.151 8.27273 1.46107
RightHand  -0.664636 18.1468 -3.79136
LeftUpLeg  -62.5121 9.09533 17.6012
LeftLeg  53.4319 2.88246 3.39114
LeftFoot  -2.20619 -0.02449 -1.27183
LeftToes  -34.1717 2.34596e-006 -6.06653e-008
325
root  -7.94217 25.7951 -4.02105 16.2592 41.9196 3.0934
RightUpLeg  -46.0323 -3.67348 -12.2055
RightLeg  78.8684 -0.920958 -3.81426
RightFoot  -31.7414 0.841834 3.33805
RightToes  -40.3009 -0.220891 -0.316816
Spine  19.5158 2.33769 6.77732
Spine1  34.5467 8.64948 6.46975
HEad  10.9469 7.58409 -17.5699
LeftShoulder1  0 -2.42657e-020 -4.95415e-022
LeftArm  -20.2756 -19.1918 -94.6284
LeftForeArm  19.2345 -41.8593 -9.09405
LeftHand  -0.0657116 -7.17979 0.67808
RightShoulder  0 2.42657e-020 1.07489e-018
RightArm  -76.5011 33.7406 52.4098
RightForeArm  30.1527 13.0537 2.33907
RightHand  -0.0103019 19.8149 0.311129
LeftUpLeg  -66.7237 12.1071 11.7823
LeftLeg  56.1635 -2.34789 -3.06322
LeftFoot  -0.349788 -0.00295298 -0.967378
LeftToes  -28.2588 2.34596e-006 -6.06653e-008
326
root  -6.84152 25.9043 -4.15741 15.821 44.4695 3.94788
RightUpLeg  -42.3223 -1.36385 -12.9313
RightLeg  78.8623 -3.12166 -11.9454
RightFoot  -32.6834 2.17191 7.77566
RightToes  -27.0766 -0.124317 -0.231143
Spine  19.222 0.771272 5.85277
Spine1  34.1093 5.35515 5.39716
HEad  11.6428 9.51455 -16.7709
LeftShoulder1  0 -2.42657e-020 -4.95415e-022
LeftArm  -22.6363 -17.5754 -90.7494
LeftForeArm  18.8696 -43.3503 -9.58815
LeftHand  -0.0294798 -7.29472 0.0926034
RightShoulder  0 2.42657e-020 1.07489e-018
RightArm  -67.6883 29.2391 55.3929
RightForeArm  20.774 18.6423 3.40656
RightHand  1.0105 20.1968 6.04126
LeftUpLeg  -65.9199 10.062 9.72727
LeftLeg  55.7632 -5.82809 -7.43567
LeftFoot  9.59388 0.191711 -2.2842
LeftToes  -32.0851 2.34596e-006 -6.06653e-008
327
root  -5.90216 26.0983 -3.95456 13.3247 45.4987 3.26132
RightUpLeg  -38.2228 1.09091 -10.382
RightLeg  79.3417 -5.65348 -21.355
RightFoot  -34.2571 4.14912 13.7853
RightToes  -2.67113 -0.00723349 -0.0251101
Spine  18.3628 0.0798285 4.11905
Spine1  32.8041 3.59573 3.36419
HEad  15.5292 11.8194 -14.6469
LeftShoulder1  0 -2.42657e-020 -4.95415e-022
LeftArm  -26.4008 -13.8842 -86.7485
LeftForeArm  19.1473 -43.5304 -9.64966
LeftHand  -0.0173108 -7.1396 -0.0925541
RightShoulder  0 2.42657e-020 1.07489e-018
RightArm  -64.2443 23.0591 61.8937
RightForeArm  6.12716 24.8548 4.67332
RightHand  0.986359 19.2716 6.17684
LeftUpLeg  -63.7257 10.5008 8.93942
LeftLeg  57.3212 -6.78296 -9.12365
LeftFoot  7.82616 0.146128 -2.13606
LeftToes  -35.6005 2.34596e-006 -6.06653e-008
328
root  -5.26516 26.5529 -3.65229 12.6677 47.6456 3.45367
RightUpLeg  -34.8223 -1.06536 -6.59405
RightLeg  78.3285 -7.48243 -25.6007
RightFoot  -35.286 5.37162 17.1588
RightToes  6.39501 0.0125071 0.0612709
Spine  17.0059 -0.576032 2.25212
Spine1  30.556 1.47701 1.78664
HEad  18.5413 12.2706 -12.6503
LeftShoulder1  0 -2.42657e-020 -4.95415e-022
LeftArm  -30.607 -10.0199 -84.6132
LeftForeArm  19.1558 -42.7369 -9.38197
LeftHand  -0.0683896 -7.08982 0.73469
RightShoulder  0 2.42657e-020 1.07489e-018
RightArm  -62.6975 15.5543 67.1821
RightForeArm  5.82139 32.8285 6.52158
RightHand  1.07833 20.2496 6.40516
LeftUpLeg  -61.8844 10.9922 7.25657
LeftLeg  56.4961 -8.70693 -11.2936
LeftFoot  7.80228 0.162861 -2.3879
LeftToes  -35.7516 2.34596e-006 -6.06653e-008
